<svg xmlns="http://www.w3.org/2000/svg" version="1.1" xmlns:xlink="http://www.w3.org/1999/xlink" xmlns:svgjs="http://svgjs.com/svgjs" width="256" height="256" x="0" y="0" viewBox="0 0 24 24" style="enable-background:new 0 0 512 512" xml:space="preserve"><g><path d="M12 24C5.383 24 0 18.617 0 12S5.383 0 12 0s12 5.383 12 12-5.383 12-12 12Zm0-22C6.486 2 2 6.486 2 12s4.486 10 10 10 10-4.486 10-10S17.514 2 12 2Zm2.5 14.33a.999.999 0 0 0 .366-1.366L13 11.732V6a1 1 0 1 0-2 0v6c0 .176.046.348.134.5l2 3.464a1 1 0 0 0 1.366.366Z" fill="#0f6655" data-original="#000000"></path></g></svg>