<svg xmlns="http://www.w3.org/2000/svg" version="1.1" xmlns:xlink="http://www.w3.org/1999/xlink" xmlns:svgjs="http://svgjs.com/svgjs" width="256" height="256" x="0" y="0" viewBox="0 0 24 24" style="enable-background:new 0 0 512 512" xml:space="preserve"><g><path d="M17.5.917a6.4 6.4 0 0 0-5.5 3.3 6.4 6.4 0 0 0-5.5-3.3A6.8 6.8 0 0 0 0 7.967c0 6.775 10.956 14.6 11.422 14.932l.578.409.578-.409C13.044 22.569 24 14.742 24 7.967a6.8 6.8 0 0 0-6.5-7.05ZM12 20.846c-3.253-2.43-10-8.4-10-12.879a4.8 4.8 0 0 1 4.5-5.05 4.8 4.8 0 0 1 4.5 5.05h2a4.8 4.8 0 0 1 4.5-5.05 4.8 4.8 0 0 1 4.5 5.05c0 4.481-6.747 10.449-10 12.879Z" data-name="01 align center" fill="#0f6655" data-original="#000000"></path></g></svg>