<svg xmlns="http://www.w3.org/2000/svg" version="1.1" xmlns:xlink="http://www.w3.org/1999/xlink" xmlns:svgjs="http://svgjs.com/svgjs" width="256" height="256" x="0" y="0" viewBox="0 0 24 24" style="enable-background:new 0 0 512 512" xml:space="preserve"><g><path d="M12 24a12 12 0 1 1 12-12 12.013 12.013 0 0 1-12 12Zm0-22a10 10 0 1 0 10 10A10.011 10.011 0 0 0 12 2Zm5.666 13.746a1 1 0 0 0-1.33-1.494A7.508 7.508 0 0 1 12 16a7.509 7.509 0 0 1-4.334-1.746 1 1 0 0 0-1.332 1.492A9.454 9.454 0 0 0 12 18a9.454 9.454 0 0 0 5.666-2.254ZM6 10c0 1 .895 1 2 1s2 0 2-1a2 2 0 0 0-4 0Zm8 0c0 1 .895 1 2 1s2 0 2-1a2 2 0 0 0-4 0Z" fill="#0f6655" data-original="#000000"></path></g></svg>